<?xml version="1.0" encoding="UTF-8" standalone="no"?>
<!-- Created with Inkscape (http://www.inkscape.org/) -->

<svg
   xmlns:dc="http://purl.org/dc/elements/1.1/"
   xmlns:cc="http://creativecommons.org/ns#"
   xmlns:rdf="http://www.w3.org/1999/02/22-rdf-syntax-ns#"
   xmlns:svg="http://www.w3.org/2000/svg"
   xmlns="http://www.w3.org/2000/svg"
   xmlns:sodipodi="http://sodipodi.sourceforge.net/DTD/sodipodi-0.dtd"
   xmlns:inkscape="http://www.inkscape.org/namespaces/inkscape"
   width="62.520031mm"
   height="10.393385mm"
   viewBox="0 0 62.520031 10.393385"
   version="1.1"
   id="svg8"
   inkscape:export-filename="/home/tramm/Kood/integradio/integrlogo.png"
   inkscape:export-xdpi="151"
   inkscape:export-ydpi="151"
   inkscape:version="0.92.3 (2405546, 2018-03-11)"
   sodipodi:docname="integrlogo.svg">
  <defs
     id="defs2" />
  <sodipodi:namedview
     id="base"
     pagecolor="#ffffff"
     bordercolor="#666666"
     borderopacity="1.0"
     inkscape:pageopacity="0.0"
     inkscape:pageshadow="2"
     inkscape:zoom="3.959798"
     inkscape:cx="87.881083"
     inkscape:cy="-14.195043"
     inkscape:document-units="mm"
     inkscape:current-layer="layer1"
     showgrid="false"
     fit-margin-top="0.5"
     fit-margin-left="0.5"
     fit-margin-right="0.5"
     fit-margin-bottom="0.5"
     inkscape:window-width="3200"
     inkscape:window-height="1727"
     inkscape:window-x="0"
     inkscape:window-y="0"
     inkscape:window-maximized="1" />
  <metadata
     id="metadata5">
    <rdf:RDF>
      <cc:Work
         rdf:about="">
        <dc:format>image/svg+xml</dc:format>
        <dc:type
           rdf:resource="http://purl.org/dc/dcmitype/StillImage" />
        <dc:title></dc:title>
      </cc:Work>
    </rdf:RDF>
  </metadata>
  <g
     inkscape:label="Layer 1"
     inkscape:groupmode="layer"
     id="layer1"
     transform="translate(-63.015939,-113.89548)">
    <flowRoot
       xml:space="preserve"
       id="flowRoot10"
       style="font-style:normal;font-variant:normal;font-weight:600;font-stretch:normal;font-size:40px;line-height:1.25;font-family:'Proxima Nova';-inkscape-font-specification:'Proxima Nova Semi-Bold';letter-spacing:0px;word-spacing:0px;fill:#000000;fill-opacity:1;stroke:none"
       transform="matrix(0.26458333,0,0,0.26458333,65.767857,20.646949)"><flowRegion
         id="flowRegion12"><rect
           id="rect14"
           width="684.37836"
           height="233.85031"
           x="38.385796"
           y="351.77328" /></flowRegion><flowPara
         id="flowPara16">inteGradio</flowPara></flowRoot>    <path
       d="m 67.234725,123.72733 c -1.08081,-0.2415 -2.04156,-0.83046 -2.69397,-1.65145 -0.25766,-0.32424 -0.5971,-0.85599 -0.5971,-0.9354 0,-0.0172 0.0841,-0.0315 0.187,-0.0316 0.29647,-4e-4 0.52809,-0.0859 0.70809,-0.26114 0.29133,-0.28369 0.31734,-0.40149 0.35519,-1.60851 0.0364,-1.16079 0.091,-1.53736 0.25298,-1.74324 0.1585,-0.2015 0.44343,-0.1645 0.56654,0.0736 0.14392,0.2783 0.17894,0.60221 0.22364,2.06858 0.0296,0.97235 0.0713,1.61189 0.11899,1.82724 0.13572,0.61267 0.3799,0.93764 0.78589,1.04589 0.47951,0.12786 0.87213,-0.16862 1.08548,-0.81967 0.18141,-0.55357 0.21295,-0.92928 0.25196,-3.00089 0.0323,-1.71509 0.0522,-2.08759 0.12365,-2.31222 0.20488,-0.64427 0.62492,-0.67122 0.85612,-0.0549 0.0693,0.18477 0.0901,0.52205 0.12117,1.96824 0.0398,1.85253 0.0705,2.10226 0.31181,2.53936 0.28783,0.52134 0.95228,0.61438 1.39045,0.19469 0.28785,-0.27571 0.48949,-1.02781 0.49021,-1.82841 0.001,-1.2893 0.27895,-2.22748 0.62073,-2.09633 0.1118,0.0429 0.25891,0.38872 0.3789,0.89069 0.59967,2.50874 -0.85987,4.967 -3.36861,5.67363 -0.46752,0.13169 -1.69947,0.16685 -2.16912,0.0619 z m -0.14227,-1.89716 c -0.19305,-0.24543 -0.24722,-0.69852 -0.30377,-2.54108 -0.0357,-1.16456 -0.0557,-1.39148 -0.14799,-1.68065 -0.12593,-0.39466 -0.2988,-0.618 -0.57572,-0.74378 -0.24787,-0.11259 -0.42337,-0.11697 -0.66369,-0.0166 -0.58012,0.24239 -0.75867,0.77301 -0.78627,2.33666 -0.0187,1.05678 -0.0514,1.22761 -0.25322,1.31955 -0.17814,0.0812 -0.5465,0.0704 -0.63544,-0.0185 -0.22882,-0.22882 -0.28786,-1.86731 -0.0929,-2.57789 0.6224,-2.26831 2.78856,-3.75316 5.07694,-3.48012 0.81131,0.0968 1.51605,0.35872 2.18937,0.81367 0.33107,0.2237 0.99751,0.88189 1.136,1.12194 l 0.0888,0.154 -0.14523,0.0751 c -0.48568,0.25116 -0.71346,0.97909 -0.77821,2.48701 -0.0493,1.14883 -0.20514,1.63072 -0.52725,1.63072 -0.18066,0 -0.31915,-0.14451 -0.39807,-0.41536 -0.0382,-0.13111 -0.0753,-0.84366 -0.10041,-1.92828 -0.0386,-1.6687 -0.0657,-1.95071 -0.22743,-2.36443 -0.17123,-0.4382 -0.49109,-0.67666 -0.90818,-0.67706 -0.65388,-6.3e-4 -0.9867,0.49614 -1.10505,1.64946 -0.0285,0.27777 -0.052,1.13656 -0.0522,1.90842 -7e-4,2.24925 -0.15394,3.07386 -0.57136,3.07386 -0.0682,0 -0.16173,-0.0542 -0.21875,-0.12668 z"
       id="path2987"
       style="fill:#000000;stroke-width:0.02645833"
       inkscape:connector-curvature="0"
       sodipodi:nodetypes="ssscssssssssssssssssssssssssssssssscsssssssssss" />
  </g>
</svg>
