<?xml version="1.0" encoding="UTF-8" standalone="no"?>
<!-- Generator: Adobe Illustrator 20.1.0, SVG Export Plug-In . SVG Version: 6.00 Build 0)  -->

<svg
   xmlns:dc="http://purl.org/dc/elements/1.1/"
   xmlns:cc="http://creativecommons.org/ns#"
   xmlns:rdf="http://www.w3.org/1999/02/22-rdf-syntax-ns#"
   xmlns:svg="http://www.w3.org/2000/svg"
   xmlns="http://www.w3.org/2000/svg"
   xmlns:xlink="http://www.w3.org/1999/xlink"
   xmlns:sodipodi="http://sodipodi.sourceforge.net/DTD/sodipodi-0.dtd"
   xmlns:inkscape="http://www.inkscape.org/namespaces/inkscape"
   version="1.1"
   id="Layer_1"
   x="0px"
   y="0px"
   viewBox="0 0 235.48731 63.441269"
   xml:space="preserve"
   sodipodi:docname="postipoiss.svg"
   inkscape:version="0.92.3 (2405546, 2018-03-11)"
   width="235.4873"
   height="63.441269"><sodipodi:namedview
   pagecolor="#ffffff"
   bordercolor="#666666"
   borderopacity="1"
   objecttolerance="10"
   gridtolerance="10"
   guidetolerance="10"
   inkscape:pageopacity="0"
   inkscape:pageshadow="2"
   inkscape:window-width="3200"
   inkscape:window-height="1727"
   id="namedview27"
   showgrid="false"
   inkscape:zoom="5.2444444"
   inkscape:cx="40.063559"
   inkscape:cy="48.568386"
   inkscape:window-x="0"
   inkscape:window-y="0"
   inkscape:window-maximized="1"
   inkscape:current-layer="g24"
   fit-margin-top="0"
   fit-margin-left="0"
   fit-margin-right="0"
   fit-margin-bottom="0" /><metadata
   id="metadata31"><rdf:RDF><cc:Work
       rdf:about=""><dc:format>image/svg+xml</dc:format><dc:type
         rdf:resource="http://purl.org/dc/dcmitype/StillImage" /><dc:title></dc:title></cc:Work></rdf:RDF></metadata><defs
   id="defs29"><linearGradient
     inkscape:collect="always"
     id="linearGradient4662"><stop
       style="stop-color:#33fbee;stop-opacity:1"
       offset="0"
       id="stop4658" /><stop
       style="stop-color:#ff6dff;stop-opacity:1"
       offset="1"
       id="stop4660" /></linearGradient><linearGradient
     inkscape:collect="always"
     xlink:href="#linearGradient4662"
     id="linearGradient4664"
     x1="117.24915"
     y1="43.716103"
     x2="136.92459"
     y2="10.919491"
     gradientUnits="userSpaceOnUse" /></defs>
<style
   id="style2"
   type="text/css">
	.st0{fill:#4DADE9;}
</style>
<g
   id="g24"
   transform="translate(3.4322026)">
	<path
   id="path4"
   d="m 98.7,13.1 c 0,-1.2 -0.5,-1.7 -1.3,-1.9 C 96.9,11 96.8,10.9 96.8,10.4 V 8.3 c 0,-0.4 0.5,-0.6 1.2,-0.6 h 9.9 c 0.5,0 1,0.1 1,0.6 v 31.8 c 0,0.6 0.2,0.7 0.6,0.8 1.2,0.4 1.2,0.6 1.2,2.6 0,0.8 -0.1,1.2 -1.2,1.2 H 97.8 C 97,44.7 97,44.2 97,43 c 0,-1.6 0.4,-1.7 0.8,-1.9 0.6,-0.2 0.9,-0.4 0.9,-1 z"
   class="st0"
   inkscape:connector-curvature="0"
   style="fill:#4dade9" />
	
	
	<path
   id="path10"
   d="M 15.6,1 H 1.1 C 0,1 0,1.4 0,2.4 0,4.3 0,4.5 0.8,4.8 1.6,5.2 2.3,5.7 2.3,6.7 v 33.1 c 0,0.4 -0.6,0.7 -1,0.9 -0.6,0.2 -0.7,0.3 -0.8,0.5 -0.2,0.3 -0.3,0.4 -0.3,1.2 0,0.9 0,2.3 1.1,2.3 h 13.3 c 0.9,0 1,-0.6 1,-1.4 0,-1.7 -0.3,-2.1 -1.2,-2.4 C 13.7,40.7 13,40.3 13,38.8 v -9 h 3.5 c 5.7,0 12.9,-3 12.9,-14.4 C 29.3,6.6 24.1,1 15.6,1 Z m 1.9,21.1 c 0,2.6 -1,4.6 -2.7,4.6 h -2 V 4 4 h 1.4 c 2.4,0 3.2,2.3 3.2,4.6 v 13.5 z"
   class="st0"
   inkscape:connector-curvature="0"
   style="fill:#4dade9" />
	<path
   id="path12"
   d="m 44,7.3 c -4.2,0 -7.3,2.2 -8.1,3 -4.2,3.8 -5.5,10 -5.5,16.3 0,14.8 7.9,18.4 13.3,18.4 4,0 13.8,-2.3 13.8,-19.6 v 0 C 57.6,10.2 48.7,7.3 44,7.3 Z m 2.2,30 c 0,1.5 -0.4,4.2 -2.5,4.2 -1.9,0 -2.2,-2 -2.2,-4.1 V 14.9 c 0,-1.2 0.2,-4.1 2.4,-4.1 2,0 2.3,2.1 2.3,3.4 v 0 z"
   class="st0"
   inkscape:connector-curvature="0"
   style="fill:#4dade9" />
	<path
   id="path14"
   d="m 59.3,35.7 c -0.1,-0.7 0.9,-0.8 2.7,-0.8 1.2,0 1.5,0.3 2.4,1.6 2.4,3.9 3.6,4.3 5,4.3 0.7,0 1.4,-0.2 1.4,-1.5 0,-2.3 -3.6,-7 -5.5,-9.5 C 63.6,27.6 63.2,27 62.6,26.1 60,22 58.8,19.5 58.8,15.9 c 0,-7.1 5.1,-8.7 7.7,-8.7 1,0 2,0.1 4,1.1 1,0.5 1.4,0.3 1.6,0.3 0.3,0 0.5,-0.2 0.5,-0.5 0.3,-0.8 0.7,-0.8 2.4,-0.8 0.9,0 1.2,0 1.4,0.8 l 1.8,7.6 c 0.3,1.1 0,1.4 -1.8,1.4 -1.7,0 -2.1,-0.3 -3,-1.6 -1.2,-1.7 -3.6,-4.4 -5.4,-4.4 -0.9,0 -1.3,0.7 -1.3,1.3 0,1.3 2.5,4.6 3.7,6.1 0,0 0.1,0.3 0.3,0.4 l 0.9,1.3 c 0.2,0.2 1.1,1.2 1.3,1.4 3.3,4.2 6,8.4 6,14.1 0,6.6 -4.2,9.1 -7.7,9.1 -1.1,0 -2.2,-0.2 -4.1,-1.2 -0.5,-0.2 -1.2,-0.5 -1.7,-0.5 -0.4,0 -0.4,0.5 -0.4,0.7 -0.1,0.7 -0.3,1 -2.3,1 -0.8,0 -1.6,-0.1 -1.8,-0.9 z"
   class="st0"
   inkscape:connector-curvature="0"
   style="fill:#4dade9" />
	<path
   id="path16"
   d="m 81.9,11.4 h -1.6 c -0.3,0 -0.4,-0.3 -0.4,-0.6 V 8.3 c 0,-0.3 0.8,-0.5 1,-0.5 1,-0.2 6,-1.6 7.2,-6.2 0.1,-0.4 0.3,-1.1 0.8,-1.1 h 2.6 c 0.5,0 0.9,0.2 0.9,0.5 v 6.8 h 2.3 c 0.2,0 0.6,0.3 0.6,0.5 V 11 c 0,0.2 -0.3,0.5 -0.7,0.5 h -2.3 v 28 c 0,1.3 0.7,1.7 1.4,2.1 0.8,0.3 1.1,0.5 1.1,2.4 0,0.4 0,0.7 -0.3,0.7 H 84.2 c -1.7,-1.3 -2.3,-3.3 -2.3,-5.2 z"
   class="st0"
   inkscape:connector-curvature="0"
   style="fill:#4dade9" />
	
	<path
   id="path20"
   d="m 210.2,35.7 c -0.1,-0.7 0.9,-0.8 2.7,-0.8 1.2,0 1.5,0.3 2.4,1.6 2.4,3.9 3.6,4.3 5,4.3 0.7,0 1.4,-0.2 1.4,-1.5 0,-2.3 -3.7,-7 -5.5,-9.5 -1.7,-2.2 -2.1,-2.8 -2.7,-3.7 -2.6,-4.1 -3.8,-6.6 -3.8,-10.2 0,-7.1 5.1,-8.7 7.8,-8.7 1,0 2,0.1 4,1.1 1.1,0.5 1.4,0.3 1.6,0.3 0.4,0 0.5,-0.2 0.6,-0.5 0.3,-0.8 0.7,-0.8 2.4,-0.8 0.9,0 1.2,0 1.4,0.8 l 1.8,7.6 c 0.3,1.1 0,1.4 -1.8,1.4 -1.7,0 -2.1,-0.3 -3,-1.6 -1.2,-1.7 -3.6,-4.4 -5.4,-4.4 -0.9,0 -1.3,0.7 -1.3,1.3 0,1.3 2.5,4.6 3.6,6.1 0,0 0.2,0.3 0.4,0.4 l 0.9,1.3 c 0.2,0.2 1.1,1.2 1.2,1.4 3.3,4.2 6.1,8.4 6.1,14.1 0,6.6 -4.2,9.1 -7.8,9.1 -1,0 -2.1,-0.2 -4,-1.2 -0.5,-0.2 -1.2,-0.5 -1.8,-0.5 -0.3,0 -0.4,0.5 -0.4,0.7 -0.1,0.7 -0.3,1 -2.3,1 -0.8,0 -1.6,-0.1 -1.8,-0.9 z"
   class="st0"
   inkscape:connector-curvature="0"
   style="fill:#4dade9" />
	<path
   id="path22"
   d="m 103.1,6.5 c 3.2,0 5.9,-1.4 5.9,-3.2 0,-1.8 -2.6,-3.3 -5.9,-3.3 -3.2,0 -5.9,1.4 -5.9,3.3 0.1,1.7 2.7,3.2 5.9,3.2 z"
   class="st0"
   inkscape:connector-curvature="0"
   style="fill:#4dade9" />
<path
   sodipodi:nodetypes="ssscssccsssscscscscscccsscc"
   style="opacity:1;fill:url(#linearGradient4664);fill-opacity:1"
   id="path10-3"
   d="m 128.46356,7.5144068 h -14.5 c -1.1,0 -1.1,0.4 -1.1,1.3999999 0,1.9000003 0,2.1000003 0.8,2.4000003 0.8,0.4 1.5,0.9 1.5,1.9 v 27.1 c 0,0.4 -0.6,0.7 -1,0.9 -0.6,0.2 -0.7,0.3 -0.8,0.5 -0.2,0.3 -0.3,0.4 -0.3,1.2 0,0.9 0,2.3 1.1,2.3 h 13.3 c 0.9,0 1,-0.6 1,-1.4 0,-1.7 -0.3,-2.1 -1.2,-2.4 -0.7,-0.2 -1.4,-0.6 -1.4,-2.1 v -3 h 3.5 c 5.7,0 12.9,-3 12.9,-14.4 -0.1,-8.8 -5.3,-14.4000002 -13.8,-14.4000002 z m 1.9,21.1000002 c 0,2.6 -1,4.6 -2.7,4.6 h -2 v -22.7 0 h 1.4 c 2.4,0 3.2,2.3 3.2,4.6 v 13.5 z"
   class="st0"
   inkscape:connector-curvature="0" /><path
   style="fill:#4dade9"
   id="path12-6"
   d="m 158.31229,8.0355929 c -4.2,0 -7.3,2.2000001 -8.1,3.0000001 -4.2,3.8 -5.5,10 -5.5,16.3 0,14.8 7.9,18.4 13.3,18.4 4,0 13.8,-2.3 13.8,-19.6 v 0 c 0.1,-15.2 -8.8,-18.1000001 -13.5,-18.1000001 z m 2.2,30.0000001 c 0,1.5 -0.4,4.2 -2.5,4.2 -1.9,0 -2.2,-2 -2.2,-4.1 v -22.5 c 0,-1.2 0.2,-4.1 2.4,-4.1 2,0 2.3,2.1 2.3,3.4 v 0 z"
   class="st0"
   inkscape:connector-curvature="0" /><path
   style="fill:#4dade9"
   id="path4-7"
   d="m 174.95,13.440678 c 0,-1.2 -0.5,-1.7 -1.3,-1.9 -0.5,-0.2 -0.6,-0.3 -0.6,-0.8 V 8.6406779 c 0,-0.4 0.5,-0.6 1.2,-0.6 h 9.9 c 0.5,0 1,0.1 1,0.6 V 40.440678 c 0,0.6 0.2,0.7 0.6,0.8 1.2,0.4 1.2,0.6 1.2,2.6 0,0.799998 -0.1,1.199998 -1.2,1.199998 h -11.7 c -0.8,0 -0.8,-0.5 -0.8,-1.699998 0,-1.6 0.4,-1.7 0.8,-1.9 0.6,-0.2 0.9,-0.4 0.9,-1 z"
   class="st0"
   inkscape:connector-curvature="0" /><path
   style="fill:#4dade9"
   id="path22-5"
   d="m 179.35,6.8406779 c 3.2,0 5.9,-1.4 5.9,-3.2 0,-1.8 -2.6,-3.29999997 -5.9,-3.29999997 -3.2,0 -5.9,1.39999997 -5.9,3.29999997 0.1,1.7 2.7,3.2 5.9,3.2 z"
   class="st0"
   inkscape:connector-curvature="0" /><path
   style="fill:#4dade9"
   id="path14-3"
   d="m 188.75509,36.394915 c -0.1,-0.7 0.9,-0.8 2.7,-0.8 1.2,0 1.5,0.3 2.4,1.6 2.4,3.9 3.6,4.3 5,4.3 0.7,0 1.4,-0.2 1.4,-1.5 0,-2.3 -3.6,-7 -5.5,-9.5 -1.7,-2.2 -2.1,-2.8 -2.7,-3.7 -2.6,-4.1 -3.8,-6.6 -3.8,-10.2 0,-7.0999996 5.1,-8.6999996 7.7,-8.6999996 1,0 2,0.1 4,1.1 1,0.5 1.4,0.3 1.6,0.3 0.3,0 0.5,-0.2 0.5,-0.5 0.3,-0.8 0.7,-0.8 2.4,-0.8 0.9,0 1.2,0 1.4,0.8 l 1.8,7.5999996 c 0.3,1.1 0,1.4 -1.8,1.4 -1.7,0 -2.1,-0.3 -3,-1.6 -1.2,-1.7 -3.6,-4.4 -5.4,-4.4 -0.9,0 -1.3,0.7 -1.3,1.3 0,1.3 2.5,4.6 3.7,6.1 0,0 0.1,0.3 0.3,0.4 l 0.9,1.3 c 0.2,0.2 1.1,1.2 1.3,1.4 3.3,4.2 6,8.4 6,14.1 0,6.6 -4.2,9.1 -7.7,9.1 -1.1,0 -2.2,-0.2 -4.1,-1.2 -0.5,-0.2 -1.2,-0.5 -1.7,-0.5 -0.4,0 -0.4,0.5 -0.4,0.7 -0.1,0.7 -0.3,1 -2.3,1 -0.8,0 -1.6,-0.1 -1.8,-0.9 z"
   class="st0"
   inkscape:connector-curvature="0" /><rect
   y="51.292374"
   x="-3.4322026"
   height="10.296611"
   width="235.4873"
   id="rect107"
   style="fill:#ffcc00;stroke-width:0.66157734" /><text
   id="text105"
   y="62.355934"
   x="-1.144068"
   style="font-style:normal;font-weight:normal;font-size:40px;line-height:1.25;font-family:sans-serif;letter-spacing:0px;word-spacing:0px;fill:#000000;fill-opacity:1;stroke:none"
   xml:space="preserve"><tspan
     style="font-style:normal;font-variant:normal;font-weight:bold;font-stretch:normal;font-size:14.66666698px;line-height:0;font-family:Purisa;-inkscape-font-specification:'Purisa Bold';letter-spacing:-1.05999994px"
     y="62.355934"
     x="-1.144068"
     id="tspan103"
     sodipodi:role="line">viienda võimu südametunnistus</tspan></text>

</g>
</svg>